<?xml version="1.0" encoding="utf-8"?>
<!-- Generator: Adobe Illustrator 18.1.1, SVG Export Plug-In . SVG Version: 6.00 Build 0)  -->
<svg version="1.1" id="Layer_1" xmlns="http://www.w3.org/2000/svg" xmlns:xlink="http://www.w3.org/1999/xlink" x="0px" y="0px"
	 viewBox="156 246 300 300" enable-background="new 156 246 300 300" xml:space="preserve">
<path fill="none" d="z"/>
<g>
	<path fill="#C0002D" d="M340.9,312.3c6.8-6.3,10.2-14,10.2-23.1c0-9-3.4-16.7-10.2-23.1c-6.8-6.4-15-9.6-24.6-9.6
		c-9.6,0-17.8,3.2-24.7,9.6c-6.8,6.4-10.3,14.1-10.3,23.1c0,9,3.4,16.7,10.3,23.1c6.9,6.3,15.1,9.5,24.7,9.5
		C325.9,321.8,334.1,318.7,340.9,312.3z M325.2,524.3c12.3-5.8,18.8-16.6,12.4-21.5c-3.7-2.8-8.5,1.9-12,1.9
		c-7.6,0-12.9-1.2-15.9-3.7c-3.1-2.5-4.6-7.2-4.6-14c0-2.7,0.4-6.8,1.4-12.1c0.9-5.3,2-10.1,3.2-14.3l14.6-51.7
		c1.4-4.8,2.4-10,2.9-15.6c0.5-5.7,0.8-9.7,0.8-11.9c0-10.9-3.8-19.8-11.5-26.6c-7.6-6.8-18.5-10.2-32.6-10.2
		c-7.8,0-16.2,1.2-24.9,4.2c-17.1,6-13.3,20.9-9.5,20.9c7.7,0,12.9,1.3,15.6,3.9c2.7,2.6,4.2,7.2,4.2,13.9c0,3.7-0.5,7.8-1.4,12.2
		c-0.9,4.4-2,9.2-3.3,14.1l-14.7,51.9c-1.3,5.5-2.2,10.3-2.8,14.7c-0.6,4.3-0.9,8.6-0.9,12.7c0,10.7,3.9,19.5,11.8,26.4
		c7.9,7,20,13.4,34.2,13.4C301.4,532.8,314.5,529.3,325.2,524.3z"/>
</g>
<path fill="none" d="z"/>
</svg>
